# xmcd CD database file
#
# Track frame offsets:
#	150
#	21638
#	40053
#	61538
#
# Disc length: 1063 seconds
#
# Revision: 0
# Processed by: cddbd v1.5.1PL0 Copyright (c) Steve Scherf et al.
# Submitted via: CDex 1.51
#
DISCID=2a042504
DTITLE=ＭＣＵ　feat.　浜崎貴司 - サーフライダー
DYEAR=2004
DGENRE=JPop
TTITLE0=サーフライダー
TTITLE1=６月の未完成
TTITLE2=サーフライダー　instrumental
TTITLE3=６月の未完成　instrumental
EXTD=YEAR: 2004
EXTT0=
EXTT1=
EXTT2=
EXTT3=
PLAYORDER=
